<svg width="58" height="58" viewBox="0 0 58 58" fill="none" xmlns="http://www.w3.org/2000/svg">
<path fill-rule="evenodd" clip-rule="evenodd" d="M29 58C45.0163 58 58 45.0163 58 29C58 12.9837 45.0163 0 29 0C12.9837 0 0 12.9837 0 29C0 45.0163 12.9837 58 29 58Z" fill="#FD7600"/>
<path d="M35.885 13.6931C35.885 15.4497 34.4731 16.8737 32.7315 16.8737C30.9898 16.8737 29.5779 15.4497 29.5779 13.6931C29.5779 11.9365 30.9898 10.5125 32.7315 10.5125C34.4731 10.5125 35.885 11.9365 35.885 13.6931Z" fill="white"/>
<path d="M23.9902 22.0166L27.3999 20.7133L27.433 20.729L23.4405 33.8006L16.9323 37.745C16.1714 38.4199 16.0956 39.5872 16.7629 40.3522C17.4302 41.1172 18.588 41.1903 19.3489 40.5154L26.1935 36.3665C26.4362 36.1511 26.6184 35.8751 26.7216 35.5663L28.7981 30.6583L31.328 34.2289C31.328 34.2289 30.1939 39.869 29.966 40.9684C29.7382 42.0677 30.4529 42.9304 31.4494 43.1061C32.4458 43.2818 33.3972 42.6096 33.5744 41.6046L35.0931 34.0887C35.1799 33.5968 35.0654 33.0909 34.7758 32.6866L31.5885 27.6583L32.7596 23.2667L34.1991 25.4674C34.3982 25.8794 34.7719 26.1782 35.2152 26.2795L39.8571 27.3406C40.6644 27.5252 41.4672 27.0147 41.6502 26.2005C41.8332 25.3862 41.3271 24.5765 40.5197 24.392L36.4475 23.4617L33.0338 18.2419C32.8433 17.8474 32.4921 17.556 32.0717 17.4432L29.7895 16.831C29.4109 16.7294 29.0079 16.7814 28.6669 16.9757L22.211 19.5047C21.9765 19.6383 21.782 19.8332 21.648 20.0688L18.9326 24.8448C18.5208 25.569 18.7691 26.4929 19.4872 26.9082C20.2053 27.3235 21.1213 27.0731 21.5331 26.3488L23.9902 22.0166Z" fill="white"/>
</svg>
