<svg width="58" height="58" viewBox="0 0 58 58" fill="none" xmlns="http://www.w3.org/2000/svg">
<path fill-rule="evenodd" clip-rule="evenodd" d="M29 58C45.0163 58 58 45.0163 58 29C58 12.9837 45.0163 0 29 0C12.9837 0 0 12.9837 0 29C0 45.0163 12.9837 58 29 58Z" fill="#FB0069"/>
<path fill-rule="evenodd" clip-rule="evenodd" d="M29.0001 45.8782C36.6879 45.8782 42.9201 39.646 42.9201 31.9582C42.9201 24.2704 35.4961 15.2542 29.0001 12.4702C20.6481 16.1822 15.0801 24.2704 15.0801 31.9582C15.0801 39.646 21.3123 45.8782 29.0001 45.8782ZM28.8145 38.9183C32.6584 38.9183 35.7745 35.8022 35.7745 31.9583C35.7745 28.1144 32.6584 24.9983 28.8145 24.9983C24.9706 24.9983 21.8545 28.1144 21.8545 31.9583C21.8545 35.8022 24.9706 38.9183 28.8145 38.9183ZM28.8145 42.1663C34.4522 42.1663 39.0225 37.5961 39.0225 31.9583C39.0225 26.3206 34.4522 21.7503 28.8145 21.7503C23.1768 21.7503 18.6065 26.3206 18.6065 31.9583C18.6065 37.5961 23.1768 42.1663 28.8145 42.1663ZM31.9697 31.8654C31.9697 33.6593 30.5155 35.1134 28.7217 35.1134C26.9279 35.1134 25.4737 33.6593 25.4737 31.8654C25.4737 30.0716 26.9279 28.6174 28.7217 28.6174C30.5155 28.6174 31.9697 30.0716 31.9697 31.8654Z" fill="white"/>
</svg>
