<svg width="58" height="58" viewBox="0 0 58 58" fill="none" xmlns="http://www.w3.org/2000/svg">
<path fill-rule="evenodd" clip-rule="evenodd" d="M29 58C45.0163 58 58 45.0163 58 29C58 12.9837 45.0163 0 29 0C12.9837 0 0 12.9837 0 29C0 45.0163 12.9837 58 29 58Z" fill="#8ACE25"/>
<path fill-rule="evenodd" clip-rule="evenodd" d="M28.9998 42.0519C22.3329 42.0519 16.8605 36.8453 16.4116 30.2781C18.9043 32.4812 23.505 33.8984 28.9998 33.8984C34.4946 33.8984 39.0953 32.4809 41.588 30.2778C41.1391 36.8453 35.6667 42.0519 28.9998 42.0519ZM21.5885 22.3625C21.2821 24.0316 21.7783 25.2855 22.3865 26.5042C22.5602 26.8524 22.9108 27.054 23.2748 27.054C23.4242 27.054 23.5755 27.0202 23.7179 26.9489C24.2082 26.7033 24.407 26.1059 24.1618 25.6147C23.5249 24.3384 23.1681 23.3855 23.8207 21.7589C25.038 21.5039 26.3826 21.3324 27.8304 21.2717C27.2031 23.8593 27.7195 25.6306 28.4145 27.4593C28.5872 27.9139 29.0191 28.1936 29.4774 28.1936C29.6119 28.1936 29.7489 28.1695 29.8821 28.1188C30.469 27.8948 30.7637 27.2365 30.5402 26.6483C29.8844 24.9226 29.4938 23.5506 30.1851 21.2722C31.5178 21.3289 32.7646 21.4783 33.9035 21.7013C33.3117 23.7117 33.8586 25.1297 34.5447 26.5042C34.7184 26.8524 35.069 27.054 35.433 27.054C35.5823 27.054 35.7337 27.0202 35.8761 26.9489C36.3664 26.7033 36.5652 26.1059 36.32 25.6147C35.7396 24.452 35.394 23.5568 35.8297 22.1773C39.1266 23.1715 41.1374 24.811 41.1374 26.3406C41.1374 28.7505 36.1528 31.4353 28.9998 31.4353C21.8471 31.4353 16.8622 28.7505 16.8622 26.3406C16.8622 24.9029 18.6378 23.3676 21.5885 22.3625ZM43.4015 24.9141C43.3601 24.7799 43.2934 24.6613 43.2147 24.5542C42.3522 22.5674 40.0623 20.9276 36.8808 19.9099C37.8467 17.8898 38.3048 16.0082 36.1572 13.7067C35.7833 13.3054 35.1551 13.284 34.7546 13.6594C34.3541 14.0343 34.333 14.6638 34.7072 15.0647C36.0697 16.525 35.9434 17.3429 34.9233 19.3886C33.7273 19.128 32.4406 18.9458 31.0826 18.8536C32.0709 16.1732 32.4703 13.9722 30.4039 11.0636C30.0397 10.551 29.3296 10.4314 28.8177 10.7961C28.306 11.161 28.1864 11.8725 28.5507 12.3854C30.0652 14.5171 29.8241 15.8036 28.673 18.7865C27.4324 18.7992 26.2377 18.8829 25.1059 19.0333C25.7665 17.3322 25.8335 15.6728 23.9991 13.7067C23.6246 13.3054 22.9966 13.284 22.5964 13.6594C22.1959 14.0343 22.1748 14.6638 22.549 15.0647C23.9286 16.5434 23.7819 17.363 22.7264 19.4659C18.6098 20.4292 15.637 22.3397 14.7105 24.7299C14.6477 24.8264 14.5926 24.9295 14.5579 25.0454C14.1346 26.4549 13.9199 27.9221 13.9199 29.4065C13.9199 37.7375 20.6846 44.515 28.9998 44.515C37.315 44.515 44.0799 37.7375 44.0799 29.4065C44.0799 27.8754 43.8516 26.3639 43.4015 24.9141Z" fill="white"/>
</svg>
